<svg xmlns="http://www.w3.org/2000/svg" width="54" height="55" viewBox="0 0 54 55" fill="none"><circle cx="27.0015" cy="28.8354" r="26.0723" fill="#1C1F37"></circle><circle cx="38.1753" cy="6.48779" r="5.58691" fill="#EC502C"></circle><path d="M25.1338 19.0753C25.2846 18.7027 25.5431 18.3837 25.8763 18.1591C26.2095 17.9345 26.6022 17.8145 27.0041 17.8145C27.4059 17.8145 27.7986 17.9345 28.1318 18.1591C28.465 18.3837 28.7236 18.7027 28.8743 19.0753C30.366 19.4855 31.6817 20.3741 32.6195 21.6045C33.5573 22.835 34.0652 24.3393 34.0653 25.8863V30.6244L35.9133 33.3965C36.0147 33.5484 36.0729 33.725 36.0818 33.9074C36.0906 34.0898 36.0498 34.2712 35.9636 34.4322C35.8775 34.5932 35.7492 34.7279 35.5926 34.8217C35.4359 34.9155 35.2567 34.9651 35.074 34.9651H30.4994C30.3779 35.8055 29.9577 36.574 29.3158 37.1298C28.6739 37.6856 27.8532 37.9915 27.0041 37.9915C26.1549 37.9915 25.3342 37.6856 24.6923 37.1298C24.0504 36.574 23.6302 35.8055 23.5087 34.9651H18.9341C18.7514 34.9651 18.5722 34.9155 18.4156 34.8217C18.2589 34.7279 18.1306 34.5932 18.0445 34.4322C17.9583 34.2712 17.9175 34.0898 17.9264 33.9074C17.9352 33.725 17.9934 33.5484 18.0948 33.3965L19.9428 30.6244V25.8863C19.9428 22.6341 22.1419 19.8944 25.1338 19.0753ZM25.5777 34.9651C25.6819 35.2603 25.8751 35.5159 26.1306 35.6967C26.3862 35.8775 26.6915 35.9746 27.0046 35.9746C27.3176 35.9746 27.623 35.8775 27.8785 35.6967C28.1341 35.5159 28.3273 35.2603 28.4314 34.9651H25.5767H25.5777ZM27.0041 20.8426C25.6664 20.8426 24.3835 21.374 23.4376 22.3199C22.4917 23.2658 21.9603 24.5487 21.9603 25.8863V30.9301C21.9604 31.1293 21.9014 31.3241 21.7908 31.4899L20.8194 32.9476H33.1877L32.2163 31.4899C32.1061 31.324 32.0475 31.1292 32.0478 30.9301V25.8863C32.0478 24.5487 31.5164 23.2658 30.5705 22.3199C29.6246 21.374 28.3417 20.8426 27.0041 20.8426Z" fill="#5F647E"></path></svg>