<svg xmlns="http://www.w3.org/2000/svg" width="116" height="45" viewBox="0 0 116 45" fill="none"><path d="M12 26.8253C12.1436 29.6173 13.2036 32.0286 15.75 33.8183C17.4745 35.0303 21 35.8606 25.5 33.8183C30 31.776 37.1838 20.817 39.3125 17.913C44.9375 10.239 51.4209 7.85152 60.5625 8.81522C66.4375 9.43456 71.4197 11.2979 78.125 18.4084C87.8125 28.6813 92.25 50.5285 82.875 41.4926C77.3912 36.2072 89.25 39.1406 93.75 26.5151C95.8183 20.7123 98.375 14.7561 102.375 13.147" stroke="#D1F366"></path><path d="M109.107 6.17602C109.837 5.67963 111.532 5.4289 112.045 6.16857C112.573 6.92936 111.713 8.38469 110.983 8.88108L108.495 10.5734L108.928 15.7495C108.952 16.0414 108.817 16.3263 108.571 16.4932L107.372 17.3089C107.145 17.4628 106.832 17.359 106.744 17.1013L105.277 12.7622L103.081 14.2557L103.003 16.1C102.997 16.2284 102.931 16.3479 102.824 16.421L101.928 17.0302C101.763 17.1426 101.536 17.1007 101.41 16.9189C101.404 16.9105 101.389 16.8804 101.378 16.8477L100.435 14.0643L98.15 12.1942C98.1233 12.1719 98.1004 12.1471 98.0813 12.1196C97.9685 11.9569 98.0103 11.7325 98.1756 11.6201L99.0713 11.0109C99.1788 10.9378 99.3152 10.9197 99.4383 10.9604L101.204 11.5506L103.401 10.0571L99.8375 7.14331C99.6256 6.96921 99.6409 6.64252 99.8671 6.48867L101.067 5.67297C101.312 5.50606 101.628 5.48224 101.896 5.61014L106.619 7.86838L109.107 6.17602Z" fill="#EC502C"></path><path d="M17.132 15.9486L10.466 31.3486H6.946L0.302 15.9486H4.152L8.838 26.9486L13.59 15.9486H17.132ZM18.3906 19.5126H21.8226V31.3486H18.3906V19.5126ZM20.1066 17.8626C19.476 17.8626 18.9626 17.6793 18.5666 17.3126C18.1706 16.946 17.9726 16.4913 17.9726 15.9486C17.9726 15.406 18.1706 14.9513 18.5666 14.5846C18.9626 14.218 19.476 14.0346 20.1066 14.0346C20.7373 14.0346 21.2506 14.2106 21.6466 14.5626C22.0426 14.9146 22.2406 15.3546 22.2406 15.8826C22.2406 16.4546 22.0426 16.9313 21.6466 17.3126C21.2506 17.6793 20.7373 17.8626 20.1066 17.8626ZM28.9898 31.5246C28.0072 31.5246 27.0465 31.4073 26.1078 31.1726C25.1692 30.9233 24.4212 30.6153 23.8638 30.2486L25.0078 27.7846C25.5358 28.122 26.1738 28.4006 26.9218 28.6206C27.6698 28.826 28.4032 28.9286 29.1218 28.9286C30.5738 28.9286 31.2998 28.5693 31.2998 27.8506C31.2998 27.5133 31.1018 27.2713 30.7058 27.1246C30.3098 26.978 29.7012 26.8533 28.8798 26.7506C27.9118 26.604 27.1125 26.4353 26.4818 26.2446C25.8512 26.054 25.3012 25.7166 24.8318 25.2326C24.3772 24.7486 24.1498 24.0593 24.1498 23.1646C24.1498 22.4166 24.3625 21.7566 24.7878 21.1846C25.2278 20.598 25.8585 20.1433 26.6798 19.8206C27.5158 19.498 28.4985 19.3366 29.6278 19.3366C30.4638 19.3366 31.2925 19.432 32.1138 19.6226C32.9498 19.7986 33.6392 20.048 34.1818 20.3706L33.0378 22.8126C31.9965 22.226 30.8598 21.9326 29.6278 21.9326C28.8945 21.9326 28.3445 22.0353 27.9778 22.2406C27.6112 22.446 27.4278 22.71 27.4278 23.0326C27.4278 23.3993 27.6258 23.656 28.0218 23.8026C28.4178 23.9493 29.0485 24.0886 29.9138 24.2206C30.8818 24.382 31.6738 24.558 32.2898 24.7486C32.9058 24.9246 33.4412 25.2546 33.8958 25.7386C34.3505 26.2226 34.5778 26.8973 34.5778 27.7626C34.5778 28.496 34.3578 29.1486 33.9178 29.7206C33.4778 30.2926 32.8325 30.74 31.9818 31.0626C31.1458 31.3706 30.1485 31.5246 28.9898 31.5246ZM36.6953 19.5126H40.1273V31.3486H36.6953V19.5126ZM38.4113 17.8626C37.7807 17.8626 37.2673 17.6793 36.8713 17.3126C36.4753 16.946 36.2773 16.4913 36.2773 15.9486C36.2773 15.406 36.4753 14.9513 36.8713 14.5846C37.2673 14.218 37.7807 14.0346 38.4113 14.0346C39.042 14.0346 39.5553 14.2106 39.9513 14.5626C40.3473 14.9146 40.5453 15.3546 40.5453 15.8826C40.5453 16.4546 40.3473 16.9313 39.9513 17.3126C39.5553 17.6793 39.042 17.8626 38.4113 17.8626ZM54.7745 20.2606C53.4545 19.498 52.0392 19.0066 50.5285 18.7866V31.3486H46.9645V18.7866C45.4538 19.0066 44.0312 19.498 42.6965 20.2606L41.4865 17.5986C42.5425 16.968 43.6865 16.4913 44.9185 16.1686C46.1505 15.846 47.4192 15.6846 48.7245 15.6846C50.0445 15.6846 51.3205 15.846 52.5525 16.1686C53.7992 16.4913 54.9432 16.968 55.9845 17.5986L54.7745 20.2606ZM64.827 31.6126C63.2283 31.6126 61.7836 31.268 60.493 30.5786C59.217 29.8893 58.2123 28.9433 57.479 27.7406C56.7603 26.5233 56.401 25.1593 56.401 23.6486C56.401 22.138 56.7603 20.7813 57.479 19.5786C58.2123 18.3613 59.217 17.408 60.493 16.7186C61.7836 16.0293 63.2283 15.6846 64.827 15.6846C66.4256 15.6846 67.863 16.0293 69.139 16.7186C70.415 17.408 71.4196 18.3613 72.153 19.5786C72.8863 20.7813 73.253 22.138 73.253 23.6486C73.253 25.1593 72.8863 26.5233 72.153 27.7406C71.4196 28.9433 70.415 29.8893 69.139 30.5786C67.863 31.268 66.4256 31.6126 64.827 31.6126ZM64.827 28.5766C65.7363 28.5766 66.5576 28.3713 67.291 27.9606C68.0243 27.5353 68.5963 26.9486 69.007 26.2006C69.4323 25.4526 69.645 24.602 69.645 23.6486C69.645 22.6953 69.4323 21.8446 69.007 21.0966C68.5963 20.3486 68.0243 19.7693 67.291 19.3586C66.5576 18.9333 65.7363 18.7206 64.827 18.7206C63.9176 18.7206 63.0963 18.9333 62.363 19.3586C61.6296 19.7693 61.0503 20.3486 60.625 21.0966C60.2143 21.8446 60.009 22.6953 60.009 23.6486C60.009 24.602 60.2143 25.4526 60.625 26.2006C61.0503 26.9486 61.6296 27.5353 62.363 27.9606C63.0963 28.3713 63.9176 28.5766 64.827 28.5766ZM89.7035 15.9486V31.3486H86.2495V29.4786C85.1935 30.9013 83.6388 31.6126 81.5855 31.6126C79.7668 31.6126 78.3441 31.0406 77.3175 29.8966C76.3055 28.738 75.7995 27.0953 75.7995 24.9686V15.9486H79.3635V24.8586C79.3635 26.0906 79.6495 27.022 80.2215 27.6526C80.8081 28.2686 81.6001 28.5766 82.5975 28.5766C83.6681 28.5766 84.5261 28.2466 85.1715 27.5866C85.8168 26.912 86.1395 25.922 86.1395 24.6166V15.9486H89.7035ZM103.167 31.3486L100.197 27.0586H100.021H96.9193V31.3486H93.3553V15.9486H100.021C101.385 15.9486 102.566 16.176 103.563 16.6306C104.575 17.0853 105.353 17.7306 105.895 18.5666C106.438 19.4026 106.709 20.3926 106.709 21.5366C106.709 22.6806 106.431 23.6706 105.873 24.5066C105.331 25.328 104.553 25.9586 103.541 26.3986L106.995 31.3486H103.167ZM103.101 21.5366C103.101 20.6713 102.823 20.0113 102.265 19.5566C101.708 19.0873 100.894 18.8526 99.8233 18.8526H96.9193V24.2206H99.8233C100.894 24.2206 101.708 23.986 102.265 23.5166C102.823 23.0473 103.101 22.3873 103.101 21.5366Z" fill="#D1F366"></path></svg>